<svg id="ei841lw6n1wf1" xmlns="http://www.w3.org/2000/svg" xmlns:xlink="http://www.w3.org/1999/xlink" viewBox="0 0 264.583230 264.583420" shape-rendering="geometricPrecision" text-rendering="geometricPrecision"><style><![CDATA[#ei841lw6n1wf4_tr {animation: ei841lw6n1wf4_tr__tr 3000ms linear 1 normal forwards}@keyframes ei841lw6n1wf4_tr__tr { 0% {transform: translate(2508.222290px,-1686.086304px) rotate(0deg)} 60% {transform: translate(2508.222290px,-1686.086304px) rotate(0deg)} 90% {transform: translate(2508.222290px,-1686.086304px) rotate(180deg)} 100% {transform: translate(2508.222290px,-1686.086304px) rotate(180deg)} }#ei841lw6n1wf4_ts {animation: ei841lw6n1wf4_ts__ts 3000ms linear 1 normal forwards}@keyframes ei841lw6n1wf4_ts__ts { 0% {transform: scale(0,0);animation-timing-function: cubic-bezier(0.420000,0,1,1)} 60% {transform: scale(1,1)} 100% {transform: scale(1,1)} }#ei841lw6n1wf7_ts {animation: ei841lw6n1wf7_ts__ts 3000ms linear 1 normal forwards}@keyframes ei841lw6n1wf7_ts__ts { 0% {transform: translate(2520.408691px,-1704.148038px) scale(0,0)} 62% {transform: translate(2520.408691px,-1704.148038px) scale(0,0);animation-timing-function: cubic-bezier(0.420000,0,1,1)} 98.666667% {transform: translate(2520.408691px,-1704.148038px) scale(1,1)} 100% {transform: translate(2520.408691px,-1704.148038px) scale(1,1)} }]]></style><defs><radialGradient id="ei841lw6n1wf6-fill" cx="0" cy="0" r="479.356290" spreadMethod="pad" gradientUnits="userSpaceOnUse" gradientTransform="matrix(0.45358200000000 -0.42626100000000 0.73454900000000 0.78162900000000 2544.76013576219020 -1631.59280216323009)"/><radialGradient id="ei841lw6n1wf8-fill" cx="0" cy="0" r="479.356290" spreadMethod="pad" gradientUnits="userSpaceOnUse" gradientTransform="matrix(0.45358200000000 -0.42626100000000 0.73454900000000 0.78162900000000 2544.76013576219020 -1631.59280216323009)"/></defs><g id="ei841lw6n1wf2" transform="matrix(1 0 0 1 -0.00006500000000 0.00003900000000)"><g id="ei841lw6n1wf3" transform="matrix(0.44224800000000 0 0 0.44081700000000 -976.96400000000006 872.45299999999997)"><g id="ei841lw6n1wf4_tr" transform="translate(2508.222290,-1686.086304) rotate(0)"><g id="ei841lw6n1wf4_ts" transform="scale(0,0)"><g id="ei841lw6n1wf4" transform="translate(-2508.222290,1686.086304)"><path id="ei841lw6n1wf5" d="M476.255900,0C240.944880,1.488189,45.708661,171.956700,5.846457,396.177190L113.385830,396.177190C151.830710,229.570880,301.074800,105.377960,479.338580,105.377960C657.602360,105.377960,806.881880,229.570880,845.326770,396.177190L952.866130,396.177190C912.791330,170.964580,716.031490,0,479.338580,0C478.311020,0,477.283460,0,476.255900,0ZM0,520.582710C20.125984,767.692970,227.055120,961.937070,479.338580,961.937070C731.657470,961.937070,938.551170,767.692970,958.712590,520.582710L852.874010,520.582710C833.102360,709.405560,673.405510,856.559110,479.338580,856.559110C285.307080,856.559110,125.610240,709.405560,105.838580,520.582710Z" transform="matrix(0.58510500000000 0 0 0.58510500000000 2227.75000000000000 -1960.48000000000002)" fill="rgb(250,250,250)" stroke="none" stroke-width="1"/><path id="ei841lw6n1wf6" d="M2499.764000,-1970.162900C2362.082600,-1969.292000,2247.848800,-1869.550000,2224.525500,-1738.357500L2287.447400,-1738.357500C2309.941500,-1835.839900,2397.264900,-1908.505500,2501.568000,-1908.505500C2605.871000,-1908.505500,2693.215300,-1835.839900,2715.709500,-1738.357500L2778.631300,-1738.357500C2755.183200,-1870.130500,2640.058100,-1970.162900,2501.568000,-1970.162900C2500.966700,-1970.162900,2500.365400,-1970.162900,2499.764000,-1970.162900ZM2221.104600,-1665.567500C2232.880600,-1520.982000,2353.955800,-1407.328700,2501.568000,-1407.328700C2649.201000,-1407.328700,2770.255400,-1520.982000,2782.052200,-1665.567500L2720.125300,-1665.567500C2708.557100,-1555.086000,2615.117400,-1468.985700,2501.568000,-1468.985700C2388.039000,-1468.985700,2294.599800,-1555.086000,2283.031200,-1665.567500Z" transform="matrix(1 0 0 1 6.64250772191190 -4.36404999126626)" fill="url(#ei841lw6n1wf6-fill)" stroke="none" stroke-width="3.861990"/></g></g></g><g id="ei841lw6n1wf7_ts" transform="translate(2520.408691,-1704.148038) scale(0,0)"><g id="ei841lw6n1wf7" transform="translate(-2520.408691,1688.268433)"><path id="ei841lw6n1wf8" d="M2511.623100,-1901.415300L2358.641200,-1528.051400C2379.787900,-1509.206000,2404.686900,-1494.486400,2432.074200,-1485.157000L2423.304400,-1531.949300L2533.018500,-1652.402400L2570.046100,-1484.804400C2590.052300,-1491.521600,2608.752800,-1501.099700,2625.649400,-1513.041300L2572.119200,-1695.338400L2675.530900,-1808.846500L2564.759400,-1720.403500ZM2506.046000,-1774.514200L2524.995200,-1688.683400L2458.134500,-1635.298400Z" fill="url(#ei841lw6n1wf8-fill)" stroke="none" stroke-width="3.861990"/><path id="ei841lw6n1wf9" d="M496.523620,117.496070L235.062990,755.610290C271.204720,787.818950,313.759840,812.976430,360.566930,828.921320L345.578740,748.948870L533.090550,543.082710L596.374010,829.523680C630.566920,818.043360,662.527550,801.673280,691.405510,781.263830L599.917320,469.700820L776.657470,275.704740L587.338580,426.862230ZM486.992120,334.381910L519.377950,481.074840L405.106300,572.315000Z" transform="matrix(0.58510500000000 0 0 0.58510500000000 2227.75000000000000 -1960.48000000000002)" fill="rgb(250,250,250)" stroke="none" stroke-width="1"/></g></g></g></g></svg>